<mxfile host="Electron" modified="2024-03-29T06:56:33.854Z" agent="Mozilla/5.0 (Windows NT 10.0; Win64; x64) AppleWebKit/537.36 (KHTML, like Gecko) draw.io/24.1.0 Chrome/120.0.6099.109 Electron/28.1.0 Safari/537.36" version="24.1.0" etag="YcuGkUM_9V80MopgKIx8" type="device">
  <diagram id="JCyfNTVPHtf8lYnCqZNA" name="Page-1">
    <mxGraphModel dx="1418" dy="828" grid="1" gridSize="10" guides="1" tooltips="1" connect="1" arrows="1" fold="1" page="1" pageScale="1" pageWidth="1100" pageHeight="850" math="0" shadow="0">
      <root>
        <mxCell id="0" />
        <mxCell id="1" parent="0" />
        <mxCell id="CFV52DbDzyO5auVGlK7T-7" style="edgeStyle=orthogonalEdgeStyle;rounded=0;orthogonalLoop=1;jettySize=auto;html=1;exitX=1;exitY=0.5;exitDx=0;exitDy=0;entryX=0;entryY=0.5;entryDx=0;entryDy=0;strokeWidth=3;" edge="1" parent="1" source="CFV52DbDzyO5auVGlK7T-1" target="CFV52DbDzyO5auVGlK7T-2">
          <mxGeometry relative="1" as="geometry" />
        </mxCell>
        <mxCell id="CFV52DbDzyO5auVGlK7T-1" value="&lt;font style=&quot;font-size: 18px;&quot;&gt;&lt;b&gt;เลือกเรื่องราวของผู้ใช้สำหรับรุ่นนี้&lt;/b&gt;&lt;/font&gt;&lt;div style=&quot;font-size: 18px;&quot;&gt;&lt;font style=&quot;font-size: 18px;&quot;&gt;&lt;b&gt;(Select user stories for this release)&lt;/b&gt;&lt;/font&gt;&lt;/div&gt;" style="rounded=1;whiteSpace=wrap;html=1;shadow=1;" vertex="1" parent="1">
          <mxGeometry x="40" y="100" width="320" height="90" as="geometry" />
        </mxCell>
        <mxCell id="CFV52DbDzyO5auVGlK7T-8" style="edgeStyle=orthogonalEdgeStyle;rounded=0;orthogonalLoop=1;jettySize=auto;html=1;exitX=1;exitY=0.5;exitDx=0;exitDy=0;entryX=0;entryY=0.5;entryDx=0;entryDy=0;strokeWidth=3;" edge="1" parent="1" source="CFV52DbDzyO5auVGlK7T-2" target="CFV52DbDzyO5auVGlK7T-3">
          <mxGeometry relative="1" as="geometry" />
        </mxCell>
        <mxCell id="CFV52DbDzyO5auVGlK7T-2" value="&lt;font style=&quot;&quot;&gt;&lt;span style=&quot;font-size: 18px;&quot;&gt;&lt;b&gt;แบ่งเรื่องราวออกเป็นงานต่างๆ&lt;/b&gt;&lt;/span&gt;&lt;/font&gt;&lt;div style=&quot;&quot;&gt;&lt;font style=&quot;font-size: 18px;&quot;&gt;&lt;b&gt;(&lt;/b&gt;&lt;/font&gt;&lt;span style=&quot;background-color: initial; font-size: 18px;&quot;&gt;&lt;b&gt;Break down stories to tasks&lt;/b&gt;&lt;/span&gt;&lt;b style=&quot;font-size: 18px; background-color: initial;&quot;&gt;)&lt;/b&gt;&lt;/div&gt;" style="rounded=1;whiteSpace=wrap;html=1;shadow=1;" vertex="1" parent="1">
          <mxGeometry x="480" y="100" width="280" height="90" as="geometry" />
        </mxCell>
        <mxCell id="CFV52DbDzyO5auVGlK7T-3" value="&lt;span style=&quot;font-size: 18px;&quot;&gt;&lt;b&gt;ปล่อยแผน&lt;/b&gt;&lt;/span&gt;&lt;br&gt;&lt;div style=&quot;&quot;&gt;&lt;font style=&quot;font-size: 18px;&quot;&gt;&lt;b&gt;(&lt;/b&gt;&lt;/font&gt;&lt;span style=&quot;background-color: initial; font-size: 18px;&quot;&gt;&lt;b&gt;Plan release&lt;/b&gt;&lt;/span&gt;&lt;b style=&quot;background-color: initial; font-size: 18px;&quot;&gt;)&lt;/b&gt;&lt;/div&gt;" style="rounded=1;whiteSpace=wrap;html=1;shadow=1;" vertex="1" parent="1">
          <mxGeometry x="880" y="100" width="190" height="90" as="geometry" />
        </mxCell>
        <mxCell id="CFV52DbDzyO5auVGlK7T-10" style="edgeStyle=orthogonalEdgeStyle;rounded=0;orthogonalLoop=1;jettySize=auto;html=1;exitX=0;exitY=0.5;exitDx=0;exitDy=0;entryX=1;entryY=0.5;entryDx=0;entryDy=0;strokeWidth=3;" edge="1" parent="1" source="CFV52DbDzyO5auVGlK7T-4" target="CFV52DbDzyO5auVGlK7T-5">
          <mxGeometry relative="1" as="geometry" />
        </mxCell>
        <mxCell id="CFV52DbDzyO5auVGlK7T-4" value="&lt;span style=&quot;font-size: 18px;&quot;&gt;&lt;b&gt;พัฒนา/บูรณาการ/ทดสอบซอฟต์แวร์&lt;/b&gt;&lt;/span&gt;&lt;br&gt;&lt;div style=&quot;&quot;&gt;&lt;font style=&quot;font-size: 18px;&quot;&gt;&lt;b&gt;(&lt;/b&gt;&lt;/font&gt;&lt;span style=&quot;background-color: initial;&quot;&gt;&lt;span style=&quot;font-size: 18px;&quot;&gt;&lt;b&gt;Develop/integrate/ test software&lt;/b&gt;&lt;/span&gt;&lt;b style=&quot;font-size: 18px;&quot;&gt;)&lt;/b&gt;&lt;/span&gt;&lt;/div&gt;" style="rounded=1;whiteSpace=wrap;html=1;shadow=1;" vertex="1" parent="1">
          <mxGeometry x="790" y="335" width="290" height="90" as="geometry" />
        </mxCell>
        <mxCell id="CFV52DbDzyO5auVGlK7T-11" style="edgeStyle=orthogonalEdgeStyle;rounded=0;orthogonalLoop=1;jettySize=auto;html=1;exitX=0;exitY=0.5;exitDx=0;exitDy=0;strokeWidth=3;" edge="1" parent="1" source="CFV52DbDzyO5auVGlK7T-5" target="CFV52DbDzyO5auVGlK7T-6">
          <mxGeometry relative="1" as="geometry" />
        </mxCell>
        <mxCell id="CFV52DbDzyO5auVGlK7T-5" value="&lt;span style=&quot;font-size: 18px;&quot;&gt;&lt;b&gt;เผยแพร่ซอฟต์แวร์&lt;/b&gt;&lt;/span&gt;&lt;br&gt;&lt;div style=&quot;&quot;&gt;&lt;font style=&quot;font-size: 18px;&quot;&gt;&lt;b&gt;(&lt;/b&gt;&lt;/font&gt;&lt;span style=&quot;background-color: initial; font-size: 18px;&quot;&gt;&lt;b&gt;Release software&lt;/b&gt;&lt;/span&gt;&lt;b style=&quot;background-color: initial; font-size: 18px;&quot;&gt;)&lt;/b&gt;&lt;/div&gt;" style="rounded=1;whiteSpace=wrap;html=1;shadow=1;" vertex="1" parent="1">
          <mxGeometry x="480" y="335" width="190" height="90" as="geometry" />
        </mxCell>
        <mxCell id="CFV52DbDzyO5auVGlK7T-6" value="&lt;span style=&quot;font-size: 18px;&quot;&gt;&lt;b&gt;ประเมินระบบ&lt;/b&gt;&lt;/span&gt;&lt;br&gt;&lt;div style=&quot;&quot;&gt;&lt;font style=&quot;font-size: 18px;&quot;&gt;&lt;b&gt;(&lt;/b&gt;&lt;/font&gt;&lt;span style=&quot;background-color: initial;&quot;&gt;&lt;span style=&quot;font-size: 18px;&quot;&gt;&lt;b&gt;Evaluate system&lt;/b&gt;&lt;/span&gt;&lt;b style=&quot;font-size: 18px;&quot;&gt;)&lt;/b&gt;&lt;/span&gt;&lt;/div&gt;" style="rounded=1;whiteSpace=wrap;html=1;shadow=1;" vertex="1" parent="1">
          <mxGeometry x="40" y="335" width="220" height="90" as="geometry" />
        </mxCell>
        <mxCell id="CFV52DbDzyO5auVGlK7T-9" style="edgeStyle=orthogonalEdgeStyle;rounded=0;orthogonalLoop=1;jettySize=auto;html=1;exitX=0.5;exitY=1;exitDx=0;exitDy=0;entryX=0.638;entryY=0.022;entryDx=0;entryDy=0;entryPerimeter=0;strokeWidth=3;" edge="1" parent="1" source="CFV52DbDzyO5auVGlK7T-3" target="CFV52DbDzyO5auVGlK7T-4">
          <mxGeometry relative="1" as="geometry" />
        </mxCell>
        <mxCell id="CFV52DbDzyO5auVGlK7T-12" style="edgeStyle=orthogonalEdgeStyle;rounded=0;orthogonalLoop=1;jettySize=auto;html=1;exitX=0.5;exitY=0;exitDx=0;exitDy=0;entryX=0.341;entryY=1;entryDx=0;entryDy=0;entryPerimeter=0;strokeWidth=3;" edge="1" parent="1" source="CFV52DbDzyO5auVGlK7T-6" target="CFV52DbDzyO5auVGlK7T-1">
          <mxGeometry relative="1" as="geometry" />
        </mxCell>
      </root>
    </mxGraphModel>
  </diagram>
</mxfile>
